<?xml version="1.0" encoding="UTF-8"?>
<svg version="1.1" xmlns="http://www.w3.org/2000/svg" width="562" height="401">
<path d="M0 0 C68.64 0 137.28 0 208 0 C206.92100995 3.23697015 206.416939 3.70324392 203.875 5.75 C199.51250183 9.42864711 195.55847311 13.43515643 191.5625 17.5 C181.61890074 27.50555694 171.58843444 35.47052185 158 40 C159.69527832 39.9685791 159.69527832 39.9685791 161.42480469 39.93652344 C165.62161569 39.86407304 169.81837152 39.81818216 174.015625 39.78027344 C175.8314748 39.76016939 177.64725995 39.73288165 179.46289062 39.69824219 C182.07438105 39.64966961 184.68501498 39.62701973 187.296875 39.609375 C188.10743347 39.58872986 188.91799194 39.56808472 189.75311279 39.54681396 C193.52091088 39.5453171 195.54475388 39.63772545 198.54394531 42.02441406 C199.02444336 42.67635742 199.50494141 43.32830078 200 44 C198.63016497 47.16115776 198.0109362 47.9927092 195 50 C192.62715149 50.24050903 192.62715149 50.24050903 189.79418945 50.22705078 C188.73331619 50.22689972 187.67244293 50.22674866 186.579422 50.22659302 C185.43559555 50.21627045 184.2917691 50.20594788 183.11328125 50.1953125 C181.94113571 50.1924826 180.76899017 50.18965271 179.56132507 50.18673706 C175.81161357 50.17552753 172.06213951 50.15042128 168.3125 50.125 C165.7727899 50.11497121 163.23307607 50.10584519 160.69335938 50.09765625 C154.46215835 50.07558567 148.23109614 50.04210039 142 50 C141.40929986 51.94603274 141.40929986 51.94603274 141 54 C142.76076401 55.76076401 145.28922137 55.19238151 147.6796875 55.24609375 C148.83597656 55.27896484 149.99226562 55.31183594 151.18359375 55.34570312 C153.6366293 55.40670454 156.08975939 55.46402031 158.54296875 55.51757812 C160.28126953 55.56881836 160.28126953 55.56881836 162.0546875 55.62109375 C163.65546143 55.65867798 163.65546143 55.65867798 165.28857422 55.69702148 C168 56 168 56 171 58 C171.3125 60.5 171.3125 60.5 171 63 C169 65 169 65 166.30097961 65.23377991 C165.15405136 65.22632248 164.00712311 65.21886505 162.82543945 65.21118164 C161.52681473 65.20780289 160.22819 65.20442413 158.89021301 65.20094299 C157.46456858 65.1874014 156.03892467 65.17380443 154.61328125 65.16015625 C153.15317683 65.1538845 151.69306764 65.14864485 150.23295593 65.14439392 C146.38042462 65.13106927 142.52805079 65.10664132 138.67559814 65.07904053 C132.52720492 65.03600479 126.37877351 65.00608574 120.23027611 64.9829998 C118.08829531 64.97283429 115.9464491 64.95576989 113.80451965 64.93800354 C112.49013412 64.93147263 111.1757486 64.92494171 109.8215332 64.91821289 C108.67062698 64.90995987 107.51972076 64.90170685 106.3339386 64.89320374 C102.82654619 65.00555626 99.46229463 65.44253679 96 66 C95.505 67.98 95.505 67.98 95 70 C98.78169224 72.4868537 102.5616155 72.24225142 106.91796875 72.16357422 C107.71192047 72.1574411 108.50587219 72.15130798 109.32388306 72.14498901 C111.04487148 72.13070058 112.76582725 72.11193179 114.48672485 72.08919907 C117.21016604 72.05439786 119.93337228 72.03381501 122.65698242 72.0173645 C130.3994774 71.96846883 138.14165498 71.89722865 145.88378906 71.80810547 C150.62161166 71.75456024 155.35925201 71.72046301 160.09732056 71.69836807 C161.90270739 71.68594692 163.70805846 71.66593394 165.51327515 71.6382103 C168.0364297 71.59980052 170.55862386 71.58599078 173.08203125 71.57763672 C173.82812653 71.56011353 174.5742218 71.54259033 175.34292603 71.52453613 C178.83797355 71.53775426 180.67614029 71.75546633 183.50268555 73.88967896 C185 76 185 76 184.875 78.1875 C184 80 184 80 182 81 C180.3972902 81.11856636 178.78994647 81.17706124 177.18310547 81.20532227 C175.68177567 81.2352401 175.68177567 81.2352401 174.15011597 81.26576233 C173.06674957 81.28247482 171.98338318 81.29918732 170.8671875 81.31640625 C169.76021515 81.33718735 168.6532428 81.35796844 167.51272583 81.37937927 C163.96688201 81.44490991 160.42096246 81.50377614 156.875 81.5625 C154.4752525 81.60568187 152.07551273 81.64929605 149.67578125 81.69335938 C143.78393487 81.80059488 137.89201269 81.90235472 132 82 C132.33 83.98 132.66 85.96 133 88 C133.62567871 88.01981934 134.25135742 88.03963867 134.89599609 88.06005859 C137.72276519 88.15514226 140.54877815 88.26488746 143.375 88.375 C144.35984375 88.4059375 145.3446875 88.436875 146.359375 88.46875 C147.30039062 88.50742187 148.24140625 88.54609375 149.2109375 88.5859375 C150.08024902 88.6173584 150.94956055 88.6487793 151.84521484 88.68115234 C154 89 154 89 156 91 C155.44444444 95.55555556 155.44444444 95.55555556 154 97 C151.2001028 97.09519368 148.42493826 97.12553944 145.62475586 97.11352539 C144.30780479 97.11374443 144.30780479 97.11374443 142.96424866 97.1139679 C140.04775565 97.11326844 137.13132567 97.10547455 134.21484375 97.09765625 C132.19845108 97.09579218 130.18205796 97.09436823 128.16566467 97.09336853 C122.84734862 97.08954244 117.5290597 97.07971139 112.21075439 97.06866455 C106.78829312 97.05845238 101.36582748 97.05387133 95.94335938 97.04882812 C85.29556097 97.0380892 74.64778274 97.02101169 64 97 C62.875 94.6875 62.875 94.6875 62 92 C64 89 64 89 65.8215332 88.60800171 C66.55718506 88.59991486 67.29283691 88.591828 68.05078125 88.58349609 C69.30217896 88.55864639 69.30217896 88.55864639 70.57885742 88.53329468 C71.48095947 88.53004181 72.38306152 88.52678894 73.3125 88.5234375 C74.23716064 88.50785797 75.16182129 88.49227844 76.11450195 88.47622681 C79.07632579 88.42858545 82.03791291 88.40090747 85 88.375 C87.96191982 88.3385397 90.92370462 88.29792888 93.88549805 88.25234985 C95.73063292 88.22507957 97.57586663 88.20374734 99.42114258 88.18881226 C100.25540771 88.17855011 101.08967285 88.16828796 101.94921875 88.15771484 C102.68487061 88.15121918 103.42052246 88.14472351 104.1784668 88.13803101 C106.09929595 88.10799849 106.09929595 88.10799849 108 87 C107.67 85.35 107.34 83.7 107 82 C105.988806 82.00333092 105.988806 82.00333092 104.95718384 82.00672913 C97.85004209 82.02909836 90.74291057 82.04403642 83.63574219 82.05493164 C80.99412 82.05934437 78.35255435 82.06670656 75.7109375 82.07543945 C50.323876 82.1571781 50.323876 82.1571781 39.2109375 81.55859375 C38.4746109 81.51960464 37.7382843 81.48061554 36.97964478 81.44044495 C32.13233457 81.13233457 32.13233457 81.13233457 31 80 C30.95919217 78.00041636 30.95745644 75.99954746 31 74 C33.83045231 72.39946679 35.8321238 71.75386834 39.07836914 71.78881836 C39.86921402 71.79219711 40.6600589 71.79557587 41.47486877 71.79905701 C42.31976364 71.81251663 43.16465851 71.82597626 44.03515625 71.83984375 C44.91022324 71.84504532 45.78529022 71.85024689 46.68687439 71.85560608 C49.47891953 71.87339794 52.27059557 71.90456923 55.0625 71.9375 C57.85793874 71.96512529 60.65332525 71.98983274 63.44883728 72.00868225 C65.18729846 72.02093008 66.92573189 72.03852471 68.66407776 72.06199646 C72.03796986 72.08997006 74.77512359 72.0749588 78 71 C77.67 69.35 77.34 67.7 77 66 C75.86457764 65.98541748 74.72915527 65.97083496 73.55932617 65.95581055 C69.34904391 65.89786324 65.1392985 65.82063059 60.92944336 65.73754883 C59.10694081 65.7042826 57.28433481 65.67625594 55.46166992 65.65356445 C52.8424875 65.62004919 50.22425452 65.56773648 47.60546875 65.51171875 C46.78974899 65.50532883 45.97402924 65.4989389 45.1335907 65.49235535 C39.43074911 65.3439349 39.43074911 65.3439349 37.24897766 63.60188293 C36 62 36 62 36.1875 59.9375 C37 58 37 58 39 56 C41.89967757 55.69324768 44.71783178 55.48826629 47.625 55.375 C48.42679688 55.33632812 49.22859375 55.29765625 50.0546875 55.2578125 C52.03607556 55.16346069 54.01800645 55.08063785 56 55 C55.34 53.35 54.68 51.7 54 50 C52.78417236 50.01047363 51.56834473 50.02094727 50.31567383 50.03173828 C45.7963354 50.06799231 41.27700978 50.0909202 36.75756836 50.10986328 C34.80311927 50.11990853 32.84868516 50.13354717 30.89428711 50.15087891 C28.08183083 50.17519203 25.26957361 50.18649797 22.45703125 50.1953125 C21.58601273 50.20563507 20.7149942 50.21595764 19.81758118 50.22659302 C15.43930879 50.22739913 11.96103902 50.110265 8 48 C7 47 7 47 6.75 44.5625 C6.8325 43.716875 6.915 42.87125 7 42 C10.12343663 39.91770892 10.53852922 39.76229543 14.01171875 40.0234375 C14.76904297 40.075 15.52636719 40.1265625 16.30664062 40.1796875 C17.48516602 40.27636719 17.48516602 40.27636719 18.6875 40.375 C19.48478516 40.43171875 20.28207031 40.4884375 21.10351562 40.546875 C23.06973581 40.68816028 25.03498824 40.84279906 27 41 C27 40.34 27 39.68 27 39 C26.4225 38.89945313 25.845 38.79890625 25.25 38.6953125 C22.57570937 37.86888241 21.10612405 36.70963149 19 34.875 C18.34 34.31554687 17.68 33.75609375 17 33.1796875 C11.87371668 27.59283966 9.01937571 20.04047692 5.8125 13.25 C5.36197266 12.30511719 4.91144531 11.36023438 4.44726562 10.38671875 C1.13459821 3.40379464 1.13459821 3.40379464 0 0 Z M82 51 C82.32041397 53.60280568 82.32041397 53.60280568 83 56 C91.52659391 57.45133513 104.10078567 58.94960716 112 55 C111.62095792 51.70924004 111.62095792 51.70924004 110 49 C105.69352364 48.74657764 101.37554946 48.81477362 97.0625 48.8125 C95.84369141 48.80025391 94.62488281 48.78800781 93.36914062 48.77539062 C92.20705078 48.77345703 91.04496094 48.77152344 89.84765625 48.76953125 C88.77523682 48.76542236 87.70281738 48.76131348 86.59790039 48.75708008 C83.83814396 48.73638677 83.83814396 48.73638677 82 51 Z " fill="#421658" transform="translate(165,192)"/>
<path d="M0 0 C16.23101879 6.87792457 27.07487457 35.52267017 33.34912109 50.87670898 C42.26005028 73.66298554 46.1757383 97.71799605 46.375 122.125 C46.39590698 123.78825317 46.39590698 123.78825317 46.41723633 125.48510742 C46.40793091 127.04322144 46.40793091 127.04322144 46.3984375 128.6328125 C46.39505371 129.54949707 46.39166992 130.46618164 46.38818359 131.41064453 C45.78029744 135.46551277 44.2203806 138.05232685 40.98535156 140.56445312 C33.85386296 144.26534225 27.69955655 144.6996464 19.75 144.5 C18.6053125 144.50257813 17.460625 144.50515625 16.28125 144.5078125 C10.47736281 144.44032544 5.98174801 144.31277856 1 141 C0.38125 140.608125 -0.2375 140.21625 -0.875 139.8125 C-2.75379885 136.78554631 -2.31671347 133.4354922 -2 130 C-1.27990722 126.93103314 -0.26576046 123.98218793 0.75 121 C5.78574693 105.24745634 8.54274988 88.54052594 9 72 C9.03996094 70.80375 9.07992187 69.6075 9.12109375 68.375 C9.44611826 49.40886402 6.77219293 31.1849815 2.6015625 12.72070312 C1.66698858 8.49388016 0.82888841 4.24863194 0 0 Z " fill="#401356" transform="translate(244,45)"/>
<path d="M0 0 C5.50450873 3.92080929 10.55186146 8.20027801 15.5390625 12.7578125 C17.7909289 14.809513 20.07244442 16.81809312 22.375 18.8125 C27.92626263 23.66704545 27.92626263 23.66704545 30 26 C30 26.66 30 27.32 30 28 C30.66 28 31.32 28 32 28 C33.65851004 29.87984685 35.18113931 31.75283104 36.6875 33.75 C37.13375732 34.33982666 37.58001465 34.92965332 38.03979492 35.53735352 C53.73689298 56.63323786 58.48498361 79.71460686 55.55078125 105.609375 C55 109 55 109 54 110 C51.11198118 110.15482163 48.26439514 110.23179909 45.375 110.25 C44.57964844 110.270625 43.78429687 110.29125 42.96484375 110.3125 C35.31693099 110.3627326 29.68364053 108.36788272 24 103 C20.29439293 97.70627561 19.85866424 93.16764459 19.421875 86.796875 C19.31590343 85.33862225 19.20875937 83.88045435 19.10058594 82.42236328 C19.04414917 81.65990295 18.9877124 80.89744263 18.92956543 80.11187744 C16.82917857 52.48486509 11.61873314 25.91390903 -1 1 C-0.67 0.67 -0.34 0.34 0 0 Z " fill="#441859" transform="translate(275,79)"/>
<path d="M0 0 C0.66 0.33 1.32 0.66 2 1 C3.63940699 10.53586761 3.20487787 20.58487134 3.1875 30.25 C3.18623108 30.97910583 3.18496216 31.70821167 3.18365479 32.45941162 C3.10837798 55.16500992 1.73366877 89.05233773 -14.96875 106.4140625 C-20.50610841 110.73746156 -28.09755789 113.15077608 -35.109375 113.09765625 C-35.86347656 113.09443359 -36.61757812 113.09121094 -37.39453125 113.08789062 C-38.17183594 113.07951172 -38.94914063 113.07113281 -39.75 113.0625 C-40.54277344 113.05798828 -41.33554688 113.05347656 -42.15234375 113.04882812 C-44.10159508 113.03708565 -46.05080738 113.01915146 -48 113 C-47.41573707 109.83477808 -46.5247683 108.17071795 -44.32421875 105.84375 C-21.30916099 80.01094164 -5.33941946 38.21900739 -1.375 4.125 C-1 1 -1 1 0 0 Z " fill="#481D5D" transform="translate(246,76)"/>
<path d="M0 0 C2.97 0 5.94 0 9 0 C10.98 3.63 12.96 7.26 15 11 C15 7.37 15 3.74 15 0 C17.64 0 20.28 0 23 0 C23 9.24 23 18.48 23 28 C20.03 28 17.06 28 14 28 C12.35 24.37 10.7 20.74 9 17 C8.67 20.63 8.34 24.26 8 28 C5.36 28 2.72 28 0 28 C0 18.76 0 9.52 0 0 Z " fill="#3B0E51" transform="translate(289,292)"/>
<path d="M0 0 C3.17454605 1.65494746 5.37675639 3.75351278 7 7 C7.14901491 9.10053716 7.22138453 11.20687825 7.25 13.3125 C7.27578125 14.44300781 7.3015625 15.57351563 7.328125 16.73828125 C6.87552178 21.23737277 5.36629527 23.67703334 2.15234375 26.7890625 C-1.93769152 29.09017127 -6.45507179 28.4794798 -11 28 C-14.94295506 26.60353675 -15.73864953 25.45961635 -17.8125 21.8125 C-20.02174108 14.71967336 -19.51947776 10.14594379 -16.265625 3.6640625 C-12.4426236 -1.36247637 -5.6954181 -0.83126767 0 0 Z M-8 7 C-9.99825961 9.99738941 -10.27550398 10.63347508 -10.25 14 C-10.25515625 14.680625 -10.2603125 15.36125 -10.265625 16.0625 C-10.09917603 18.32416007 -10.09917603 18.32416007 -8 21 C-5.56282742 20.72965366 -5.56282742 20.72965366 -3 20 C-0.53675931 16.30513897 -0.61008312 14.36706908 -1 10 C-2.10649669 7.97521537 -2.10649669 7.97521537 -4 7 C-5.32 7 -6.64 7 -8 7 Z " fill="#3B0E51" transform="translate(335,292)"/>
<path d="M0 0 C3.17454605 1.65494746 5.37675639 3.75351278 7 7 C7.14901491 9.10053716 7.22138453 11.20687825 7.25 13.3125 C7.27578125 14.44300781 7.3015625 15.57351563 7.328125 16.73828125 C6.87552178 21.23737277 5.36629527 23.67703334 2.15234375 26.7890625 C-1.93769152 29.09017127 -6.45507179 28.4794798 -11 28 C-14.94295506 26.60353675 -15.73864953 25.45961635 -17.8125 21.8125 C-20.02174108 14.71967336 -19.51947776 10.14594379 -16.265625 3.6640625 C-12.4426236 -1.36247637 -5.6954181 -0.83126767 0 0 Z M-8 7 C-9.99825961 9.99738941 -10.27550398 10.63347508 -10.25 14 C-10.25515625 14.680625 -10.2603125 15.36125 -10.265625 16.0625 C-10.09917603 18.32416007 -10.09917603 18.32416007 -8 21 C-5.56282742 20.72965366 -5.56282742 20.72965366 -3 20 C-0.53675931 16.30513897 -0.61008312 14.36706908 -1 10 C-2.10649669 7.97521537 -2.10649669 7.97521537 -4 7 C-5.32 7 -6.64 7 -8 7 Z " fill="#3B0E51" transform="translate(251,292)"/>
<path d="M0 0 C2.7225 -0.0825 5.445 -0.165 8.25 -0.25 C9.10110352 -0.28641602 9.95220703 -0.32283203 10.82910156 -0.36035156 C16.41862037 -0.44243355 16.41862037 -0.44243355 19.484375 1.890625 C21.77786688 5.08259823 22.11707506 6.51523607 21.6875 10.375 C21.56955078 11.53128906 21.56955078 11.53128906 21.44921875 12.7109375 C21 15 21 15 19.83984375 17.0625 C18.74797793 18.97122112 18.74797793 18.97122112 19.6796875 20.8515625 C20.07414062 21.43679688 20.46859375 22.02203125 20.875 22.625 C23 26 23 26 23 28 C20.03 28 17.06 28 14 28 C10 21.25 10 21.25 10 19 C9.34 19 8.68 19 8 19 C8 21.97 8 24.94 8 28 C5.36 28 2.72 28 0 28 C0 18.76 0 9.52 0 0 Z M8 6 C8 8.31 8 10.62 8 13 C9.65 12.67 11.3 12.34 13 12 C13.6814823 10.10820797 13.6814823 10.10820797 14 8 C13.34 7.34 12.68 6.68 12 6 C10.68 6 9.36 6 8 6 Z " fill="#3B0E52" transform="translate(263,292)"/>
<path d="M0 0 C3.63 0 7.26 0 11 0 C13.64 9.24 16.28 18.48 19 28 C16.03 28 13.06 28 10 28 C9.67 26.02 9.34 24.04 9 22 C6.69 22 4.38 22 2 22 C1.67 23.98 1.34 25.96 1 28 C-1.97 28 -4.94 28 -8 28 C-5.36 18.76 -2.72 9.52 0 0 Z M5 8 C4.67 10.64 4.34 13.28 4 16 C4.99 16 5.98 16 7 16 C6.67 13.36 6.34 10.72 6 8 C5.67 8 5.34 8 5 8 Z " fill="#3B0E51" transform="translate(179,292)"/>
<path d="M0 0 C5.94 0 11.88 0 18 0 C18 2.31 18 4.62 18 7 C14.7 7 11.4 7 8 7 C8 7.99 8 8.98 8 10 C10.97 10 13.94 10 17 10 C17 12.31 17 14.62 17 17 C14.03 17 11.06 17 8 17 C8 18.32 8 19.64 8 21 C11.63 21 15.26 21 19 21 C19 23.31 19 25.62 19 28 C12.73 28 6.46 28 0 28 C0 18.76 0 9.52 0 0 Z " fill="#3C0F51" transform="translate(369,292)"/>
<path d="M0 0 C2.6875 2 2.6875 2 4 4 C2.35 5.65 0.7 7.3 -1 9 C-3.31 8.34 -5.62 7.68 -8 7 C-8 7.66 -8 8.32 -8 9 C-7.38511719 9.18175781 -6.77023437 9.36351562 -6.13671875 9.55078125 C-4.92435547 9.92783203 -4.92435547 9.92783203 -3.6875 10.3125 C-2.48673828 10.67794922 -2.48673828 10.67794922 -1.26171875 11.05078125 C1.14835183 12.06226165 2.37442185 12.97180187 4 15 C5.09445546 18.59606794 5.31966474 20.29673757 3.75 23.75 C2 26 2 26 -1 28 C-3.77734375 28.30078125 -3.77734375 28.30078125 -6.9375 28.3125 C-8.49791016 28.33763672 -8.49791016 28.33763672 -10.08984375 28.36328125 C-13.29857048 27.96272879 -14.64358994 27.15199859 -17 25 C-16.1875 22.5625 -16.1875 22.5625 -15 20 C-10.74938644 18.58312881 -8.28148375 19.80679961 -4 21 C-4 20.34 -4 19.68 -4 19 C-4.61488281 18.82984375 -5.22976563 18.6596875 -5.86328125 18.484375 C-12.37209302 16.53276956 -12.37209302 16.53276956 -15.0625 14.25 C-16.45607855 10.90541149 -16.50328088 8.58587629 -16 5 C-12.19860653 -1.16087907 -6.61014159 -1.14914769 0 0 Z " fill="#3B0E51" transform="translate(408,292)"/>
<path d="M0 0 C2.6875 2 2.6875 2 4 4 C2.35 5.65 0.7 7.3 -1 9 C-3.31 8.34 -5.62 7.68 -8 7 C-8 7.66 -8 8.32 -8 9 C-7.38511719 9.18175781 -6.77023438 9.36351562 -6.13671875 9.55078125 C-4.92435547 9.92783203 -4.92435547 9.92783203 -3.6875 10.3125 C-2.48673828 10.67794922 -2.48673828 10.67794922 -1.26171875 11.05078125 C1.14835183 12.06226165 2.37442185 12.97180187 4 15 C5.09445546 18.59606794 5.31966474 20.29673757 3.75 23.75 C2 26 2 26 -1 28 C-3.77734375 28.30078125 -3.77734375 28.30078125 -6.9375 28.3125 C-8.49791016 28.33763672 -8.49791016 28.33763672 -10.08984375 28.36328125 C-13.29857048 27.96272879 -14.64358994 27.15199859 -17 25 C-16.1875 22.5625 -16.1875 22.5625 -15 20 C-10.74938644 18.58312881 -8.28148375 19.80679961 -4 21 C-4 20.34 -4 19.68 -4 19 C-4.61488281 18.82984375 -5.22976562 18.6596875 -5.86328125 18.484375 C-12.37209302 16.53276956 -12.37209302 16.53276956 -15.0625 14.25 C-16.45607855 10.90541149 -16.50328088 8.58587629 -16 5 C-12.19860653 -1.16087907 -6.61014159 -1.14914769 0 0 Z " fill="#3B0E51" transform="translate(167,292)"/>
<path d="M0 0 C7.59 0 15.18 0 23 0 C23 2.31 23 4.62 23 7 C20.36 7 17.72 7 15 7 C15 13.93 15 20.86 15 28 C12.36 28 9.72 28 7 28 C7 21.07 7 14.14 7 7 C4.69 7 2.38 7 0 7 C0 4.69 0 2.38 0 0 Z " fill="#3B0E52" transform="translate(343,292)"/>
<path d="M0 0 C2.64 0 5.28 0 8 0 C8 6.93 8 13.86 8 21 C11.3 21 14.6 21 18 21 C18 23.31 18 25.62 18 28 C12.06 28 6.12 28 0 28 C0 18.76 0 9.52 0 0 Z " fill="#3C0F51" transform="translate(213,292)"/>
<path d="M0 0 C68.64 0 137.28 0 208 0 C207 3 207 3 204.9375 4.1875 C204.298125 4.455625 203.65875 4.72375 203 5 C203 3.68 203 2.36 203 1 C177.08809261 1.06045113 151.17628461 1.13789161 125.26449013 1.23571491 C113.23395283 1.28073435 101.20344554 1.32013471 89.17285156 1.34643555 C78.69042295 1.36936595 68.20808882 1.40270808 57.72573507 1.44870156 C52.17229189 1.47270088 46.61894267 1.49138557 41.06544876 1.49761391 C35.84355688 1.50363455 30.62190564 1.52352405 25.40010262 1.55427551 C23.47879134 1.56310446 21.55744869 1.56676837 19.63611794 1.56500816 C17.02223574 1.56336888 14.40909902 1.57993821 11.7953186 1.60127258 C10.64260906 1.59400122 10.64260906 1.59400122 9.46661246 1.58658296 C7.1411937 1.58273629 7.1411937 1.58273629 4 2 C3.01 3.485 3.01 3.485 2 5 C1.34 3.35 0.68 1.7 0 0 Z " fill="#7A518B" transform="translate(165,192)"/>
<path d="M0 0 C2.64 0 5.28 0 8 0 C8 9.24 8 18.48 8 28 C5.36 28 2.72 28 0 28 C0 18.76 0 9.52 0 0 Z " fill="#3C0F51" transform="translate(200,292)"/>
<path d="M0 0 C3.79379058 1.49041773 5.68343758 3.69062512 8 7 C8 7.66 8 8.32 8 9 C6.68 8.67 5.36 8.34 4 8 C4.2165625 8.76183594 4.433125 9.52367187 4.65625 10.30859375 C6.39496913 16.75634386 7.33360656 22.32786876 7 29 C6.67 29 6.34 29 6 29 C5.18507328 25.29219569 4.3734916 21.58366684 3.5625 17.875 C3.33240234 16.82828125 3.10230469 15.7815625 2.86523438 14.703125 C1.79814118 9.81614749 0.74491566 4.94897989 0 0 Z " fill="#8A6899" transform="translate(244,45)"/>
<path d="M0 0 C11.55 0 23.1 0 35 0 C35 0.33 35 0.66 35 1 C34.0713916 1.01458252 33.1427832 1.02916504 32.18603516 1.04418945 C28.74533504 1.10519172 25.30544348 1.1793305 21.86523438 1.26245117 C20.37543428 1.29573463 18.88550705 1.32375597 17.39550781 1.34643555 C15.25530748 1.37992071 13.11627581 1.43222789 10.9765625 1.48828125 C9.68830566 1.51446533 8.40004883 1.54064941 7.07275391 1.56762695 C5.55174072 1.78165161 5.55174072 1.78165161 4 2 C3.01 3.485 3.01 3.485 2 5 C1.34 3.35 0.68 1.7 0 0 Z " fill="#815F91" transform="translate(165,192)"/>
<path d="M0 0 C0.66 0.33 1.32 0.66 2 1 C2 4.63 2 8.26 2 12 C1.67 11.34 1.34 10.68 1 10 C0.34 10 -0.32 10 -1 10 C-1.33 10.99 -1.66 11.98 -2 13 C-1.85966889 11.02043559 -1.7125877 9.04134859 -1.5625 7.0625 C-1.48128906 5.96035156 -1.40007812 4.85820313 -1.31640625 3.72265625 C-1 1 -1 1 0 0 Z " fill="#B194BD" transform="translate(246,76)"/>
<path d="M0 0 C2.31 1.65 4.62 3.3 7 5 C6.01 5.33 5.02 5.66 4 6 C3.34 6.66 2.68 7.32 2 8 C1.01 5.69 0.02 3.38 -1 1 C-0.67 0.67 -0.34 0.34 0 0 Z " fill="#9D83AA" transform="translate(275,79)"/>
<path d="M0 0 C3.3 0 6.6 0 10 0 C9 3 9 3 6.9375 4.1875 C6.298125 4.455625 5.65875 4.72375 5 5 C5 3.68 5 2.36 5 1 C3.35 1 1.7 1 0 1 C0 0.67 0 0.34 0 0 Z " fill="#8C6D9B" transform="translate(363,192)"/>
</svg>
